<svg width="64" height="56" viewBox="0 0 64 56" fill="none" xmlns="http://www.w3.org/2000/svg">
<path
		d="M33.9894 0L36.8249 26.307H27.4097L26.828 7.53699L23.1928 26.307H13.6685L9.96054 7.68193L9.41526 26.307H0L2.83548 0H15.1953L18.3579 17.1394L21.1207 0H33.9894Z"
		fill="#FFFFFF"
	/>
<path
		d="M38.0175 19.1007C38.0175 17.6386 38.4436 16.072 39.2958 14.401C40.1619 12.7161 41.51 11.3166 43.3401 10.2026C45.1841 9.08855 47.3704 8.53154 49.899 8.53154C53.0423 8.53154 55.3473 9.27654 56.8142 10.7665C58.295 12.2565 59.0354 14.0598 59.0354 16.1765C59.0354 19.0868 57.9039 21.6142 55.6407 23.7587C53.3776 25.8892 50.4858 26.9545 46.9653 26.9545C44.4088 26.9545 42.2784 26.314 40.574 25.0328C38.8697 23.7378 38.0175 21.7604 38.0175 19.1007ZM44.1573 21.2104C44.1573 22.4497 44.3878 23.3827 44.8489 24.0093C45.3238 24.6221 46.0293 24.9284 46.9653 24.9284C48.6976 24.9284 50.1086 23.6264 51.1982 21.0224C52.3019 18.4184 52.8537 16.2182 52.8537 14.4219C52.8537 13.0572 52.5883 12.0685 52.0574 11.4558C51.5405 10.8431 50.9398 10.5368 50.2553 10.5368C48.4112 10.5368 46.9304 11.9014 45.8128 14.6308C44.7092 17.3601 44.1573 19.5533 44.1573 21.2104Z"
		fill="#FFFFFF"
	/>
<path
		d="M28.3548 36.469H8.57915V40.2738C9.81513 40.2979 11.6691 40.31 14.1411 40.31C18.4064 40.31 22.7444 40.2375 27.1552 40.0926V47.1948C22.7444 47.0257 18.0913 46.9411 13.1959 46.9411C11.1602 46.9411 9.62125 46.9532 8.57915 46.9773V56H0C0.193879 51.3135 0.290819 46.929 0.290819 42.8465C0.290819 38.764 0.193879 34.3795 0 29.693H28.3548V36.469Z"
		fill="#FFFFFF"
	/>
<path
		d="M64 29.693L63.3093 30.7438C60.7162 34.7539 58.4866 38.305 56.6205 41.3971C54.7786 44.465 53.2397 47.2914 52.0037 49.8762V56H42.5158V49.2602C41.6191 47.4484 40.5649 45.5883 39.3531 43.6799C38.1414 41.7474 36.4207 39.1022 34.1911 35.7443C32.4462 33.1837 31.1132 31.1666 30.1923 29.693H40.371C41.098 31.1666 42.2855 33.3528 43.9335 36.2516C45.5815 39.1988 46.7084 41.2763 47.3143 42.4841C48.1625 40.7207 49.3015 38.5586 50.7314 35.998C52.4036 33.0025 53.5305 30.9009 54.1122 29.693H64Z"
		fill="#FFFFFF"
	/>
</svg>
